<svg width="20" height="20" viewBox="0 0 20 20" fill="none" xmlns="http://www.w3.org/2000/svg">
<path d="M13.0159 3.72435C12.0635 2.91721 11.0826 2.0799 10.0897 1.09023L9.52383 0.52832L8.96828 1.09102C7.18097 2.88309 6.33653 5.63467 5.96986 7.28547C5.6892 6.85047 5.48094 6.37284 5.35319 5.87118L5.01748 4.57514L4.04129 5.49261C2.33097 7.09816 1.1905 8.69102 1.1905 11.2418C1.17453 13.0817 1.77376 14.8742 2.89305 16.3346C4.01233 17.7948 5.58746 18.8394 7.36828 19.3022C7.90484 19.4326 8.45249 19.5124 9.00399 19.5403C9.17642 19.5621 9.35002 19.5734 9.52383 19.5744C9.61507 19.5744 9.70402 19.5665 9.79288 19.5608C11.9549 19.4958 14.0065 18.5908 15.5121 17.0379C17.0177 15.4849 17.859 13.4064 17.8572 11.2434C17.8572 7.83547 15.6135 5.9307 13.0159 3.72435ZM9.68259 17.9736C9.60316 17.9736 9.52383 17.9815 9.4397 17.9807C8.72535 17.9588 8.04747 17.6602 7.54927 17.1478C7.05108 16.6354 6.77158 15.9493 6.76986 15.2346C6.76986 14.2284 7.30954 13.7267 8.53097 12.687C8.83891 12.4251 9.17383 12.1403 9.52621 11.8141C9.83497 12.0942 10.135 12.3482 10.4119 12.5839C11.6389 13.6251 12.2794 14.2165 12.2794 15.2323C12.278 15.9343 12.0084 16.6092 11.5256 17.1188C11.0428 17.6285 10.3834 17.9343 9.68259 17.9736ZM13.6667 16.568L13.6508 16.5791C13.7933 16.1451 13.8661 15.6914 13.8667 15.2346C13.8667 13.437 12.6874 12.4355 11.4397 11.376C10.9976 11.0013 10.5413 10.6141 10.0857 10.1585L9.52383 9.59741L8.96272 10.1585C8.44843 10.672 7.94526 11.1006 7.5016 11.4784C6.25716 12.537 5.18176 13.4522 5.18176 15.2346C5.18346 15.711 5.26391 16.1838 5.41986 16.6339C4.59372 15.9995 3.92539 15.1827 3.46708 14.2474C3.00876 13.3121 2.77286 12.2834 2.7778 11.2418C2.76474 9.84912 3.30378 8.50794 4.277 7.51166C4.44464 7.85175 4.64337 8.17562 4.87066 8.47911C5.03666 8.70311 5.26457 8.87365 5.52632 8.96969C5.78806 9.06572 6.07218 9.08307 6.34367 9.01959C6.61985 8.95811 6.87248 8.81837 7.07134 8.61711C7.27022 8.41585 7.40692 8.16156 7.4651 7.88467C7.79741 6.06058 8.51614 4.32869 9.57307 2.8053C10.4103 3.59895 11.2397 4.30133 11.9881 4.93705C14.4738 7.04816 16.2738 8.57356 16.2738 11.2466C16.2757 12.2741 16.0416 13.2883 15.5894 14.2109C15.1373 15.1336 14.4792 15.94 13.6659 16.568H13.6667Z" fill="#253D4E"/>
</svg>
