<svg width="21" height="20" viewBox="0 0 21 20" fill="none" xmlns="http://www.w3.org/2000/svg">
<path fill-rule="evenodd" clip-rule="evenodd" d="M18.0518 4.33665C18.2592 4.49423 18.3809 4.73967 18.3809 5.00009V15.0001C18.3809 15.2529 18.2662 15.492 18.069 15.6501C17.8718 15.8083 17.6135 15.8684 17.3668 15.8136L2.36679 12.4802C1.98551 12.3955 1.71423 12.0573 1.71423 11.6668V9.16676C1.71423 8.79242 1.96385 8.46401 2.32453 8.36382L17.3245 4.19716C17.5754 4.12746 17.8445 4.17906 18.0518 4.33665ZM3.3809 9.80016V10.9983L16.7142 13.9612V6.09646L3.3809 9.80016Z" fill="#253D4E"/>
<path fill-rule="evenodd" clip-rule="evenodd" d="M5.10261 11.8632C5.54627 11.9856 5.80672 12.4445 5.68433 12.8882C5.62588 13.1 5.60974 13.3213 5.63682 13.5394C5.6639 13.7575 5.73367 13.9682 5.84216 14.1593C5.95064 14.3505 6.09571 14.5184 6.26909 14.6534C6.44246 14.7885 6.64074 14.8881 6.85261 14.9466C7.06447 15.005 7.28578 15.0211 7.50388 14.9941C7.72199 14.967 7.93262 14.8972 8.12376 14.7887C8.31491 14.6802 8.48281 14.5352 8.61788 14.3618C8.75295 14.1884 8.85256 13.9901 8.91101 13.7783C9.0334 13.3346 9.49227 13.0742 9.93594 13.1966C10.3796 13.3189 10.6401 13.7778 10.5177 14.2215C10.401 14.6443 10.2022 15.0401 9.93262 15.3861C9.66303 15.7321 9.32793 16.0217 8.94644 16.2382C8.56495 16.4547 8.14455 16.594 7.70925 16.648C7.27394 16.7021 6.83225 16.6699 6.40939 16.5532C5.98654 16.4366 5.5908 16.2378 5.24477 15.9682C4.89874 15.6986 4.6092 15.3635 4.39268 14.982C4.17616 14.6005 4.0369 14.1801 3.98285 13.7448C3.9288 13.3095 3.96102 12.8678 4.07767 12.4449C4.20006 12.0013 4.65894 11.7408 5.10261 11.8632Z" fill="#253D4E"/>
</svg>
