<svg width="21" height="20" viewBox="0 0 21 20" fill="none" xmlns="http://www.w3.org/2000/svg">
<path fill-rule="evenodd" clip-rule="evenodd" d="M16.4702 3.57733C16.7957 3.90277 16.7957 4.4304 16.4702 4.75584L4.80357 16.4225C4.47813 16.7479 3.9505 16.7479 3.62506 16.4225C3.29962 16.0971 3.29962 15.5694 3.62506 15.244L15.2917 3.57733C15.6172 3.25189 16.1448 3.25189 16.4702 3.57733Z" fill="#253D4E"/>
<path fill-rule="evenodd" clip-rule="evenodd" d="M5.46427 4.16667C4.77392 4.16667 4.21427 4.72631 4.21427 5.41667C4.21427 6.10702 4.77392 6.66667 5.46427 6.66667C6.15463 6.66667 6.71427 6.10702 6.71427 5.41667C6.71427 4.72631 6.15463 4.16667 5.46427 4.16667ZM2.54761 5.41667C2.54761 3.80584 3.85344 2.5 5.46427 2.5C7.0751 2.5 8.38094 3.80584 8.38094 5.41667C8.38094 7.0275 7.0751 8.33333 5.46427 8.33333C3.85344 8.33333 2.54761 7.0275 2.54761 5.41667Z" fill="#253D4E"/>
<path fill-rule="evenodd" clip-rule="evenodd" d="M14.6309 13.3334C13.9405 13.3334 13.3809 13.8931 13.3809 14.5834C13.3809 15.2738 13.9405 15.8334 14.6309 15.8334C15.3213 15.8334 15.8809 15.2738 15.8809 14.5834C15.8809 13.8931 15.3213 13.3334 14.6309 13.3334ZM11.7142 14.5834C11.7142 12.9726 13.0201 11.6667 14.6309 11.6667C16.2417 11.6667 17.5476 12.9726 17.5476 14.5834C17.5476 16.1942 16.2417 17.5001 14.6309 17.5001C13.0201 17.5001 11.7142 16.1942 11.7142 14.5834Z" fill="#253D4E"/>
</svg>
