<svg width="28" height="30" viewBox="0 0 28 30" fill="none" xmlns="http://www.w3.org/2000/svg">
<path fill-rule="evenodd" clip-rule="evenodd" d="M4.95063 8.481C5.72857 8.15798 6.56261 7.9917 7.40494 7.9917C8.24727 7.9917 9.08132 8.15798 9.85925 8.481C10.6372 8.80402 11.3437 9.27743 11.9383 9.87408L11.9416 9.87742L11.9999 9.93653L12.0583 9.87743L12.0616 9.87408C12.6562 9.27743 13.3627 8.80402 14.1406 8.481C14.9186 8.15798 15.7526 7.9917 16.5949 7.9917C17.4373 7.9917 18.2713 8.15798 19.0492 8.481C19.8269 8.80391 20.5332 9.2771 21.1277 9.87346C23.6727 12.4192 23.7293 16.6283 20.7136 19.7005L20.7071 19.7071L12.707 27.7071C12.5195 27.8946 12.2652 28 11.9999 28C11.7347 28 11.4804 27.8946 11.2928 27.7071L3.28627 19.7005C0.270576 16.6283 0.327197 12.4191 2.87223 9.87346C3.46668 9.2771 4.17297 8.80391 4.95063 8.481ZM7.40494 9.9917C6.82584 9.9917 6.25243 10.106 5.71761 10.3281C5.18278 10.5502 4.69705 10.8756 4.28827 11.2858L4.28705 11.2871C2.59343 12.9807 2.3897 15.9292 4.71046 18.2963L11.9999 25.5857L19.2894 18.2963C21.6102 15.9292 21.4065 12.9807 19.7128 11.2871L19.7116 11.2858C19.3028 10.8756 18.8171 10.5502 18.2823 10.3281C17.7474 10.106 17.174 9.9917 16.5949 9.9917C16.0158 9.9917 15.4424 10.106 14.9076 10.3281C14.3735 10.5499 13.8883 10.8748 13.4799 11.2842C13.4794 11.2848 13.4788 11.2853 13.4783 11.2858L12.7116 12.0625C12.5237 12.2528 12.2674 12.36 11.9999 12.36C11.7325 12.36 11.4762 12.2528 11.2883 12.0625L10.5216 11.2858C10.5211 11.2853 10.5205 11.2848 10.52 11.2842C10.1116 10.8748 9.6264 10.5499 9.09228 10.3281C8.55745 10.106 7.98404 9.9917 7.40494 9.9917Z" fill="#253D4E"/>
<circle cx="19.5" cy="8.5" r="7.5" fill="#3BB77E" stroke="white" stroke-width="2"/>
<path d="M20.125 12C20.0003 12 19.894 11.956 19.806 11.868C19.7253 11.78 19.685 11.6737 19.685 11.549V5.532L19.861 5.598L17.232 9.03L17.188 8.898H21.302C21.4193 8.898 21.5183 8.93833 21.599 9.019C21.6797 9.09967 21.72 9.19867 21.72 9.316C21.72 9.426 21.6797 9.52133 21.599 9.602C21.5183 9.67533 21.4193 9.712 21.302 9.712H16.583C16.473 9.712 16.3703 9.668 16.275 9.58C16.187 9.492 16.143 9.38933 16.143 9.272C16.143 9.162 16.1797 9.06667 16.253 8.986L19.762 4.476C19.8133 4.41 19.872 4.366 19.938 4.344C20.004 4.31467 20.07 4.3 20.136 4.3C20.2607 4.3 20.3633 4.344 20.444 4.432C20.5247 4.51267 20.565 4.61533 20.565 4.74V11.549C20.565 11.6737 20.521 11.78 20.433 11.868C20.3523 11.956 20.2497 12 20.125 12Z" fill="white"/>
</svg>
